<svg xmlns="http://www.w3.org/2000/svg" xmlns:xlink="http://www.w3.org/1999/xlink" width="54" height="50" viewBox="0 0 54 50">
  <defs>
    <linearGradient id="linear-gradient" y1="0.5" x2="1" y2="0.5" gradientUnits="objectBoundingBox">
      <stop offset="0.007" stop-color="#e9a693"/>
      <stop offset="0.99" stop-color="#e06f52"/>
    </linearGradient>
    <linearGradient id="linear-gradient-2" y1="0.5" x2="1" y2="0.5" gradientUnits="objectBoundingBox">
      <stop offset="0.08" stop-color="#97b4fb"/>
      <stop offset="0.966" stop-color="#3e6afa"/>
    </linearGradient>
    <linearGradient id="linear-gradient-3" x1="0.394" y1="-2.102" x2="0.543" y2="2.243" gradientUnits="objectBoundingBox">
      <stop offset="0.429" stop-color="#97b4fb"/>
      <stop offset="0.958" stop-color="#cddbfd"/>
    </linearGradient>
  </defs>
  <g id="Logo" transform="matrix(-1, 0, 0, -1, 238.028, 225.243)">
    <g id="Group_50" data-name="Group 50">
      <g id="Group_49" data-name="Group 49">
        <path id="Path_76" data-name="Path 76" d="M211.029,221.8a26.662,26.662,0,0,1-13.755-23.281c0-.1.006-.205.008-.309a26.647,26.647,0,0,0-13.253,22.995c0,.1.006.205.008.309a27.232,27.232,0,0,0,26.993.286Z" fill="url(#linear-gradient)"/>
        <path id="Path_77" data-name="Path 77" d="M224.775,198.215c0,.1.008.205.008.309A26.66,26.66,0,0,1,211.029,221.8a27.229,27.229,0,0,0,26.991-.286c0-.1.008-.205.008-.309A26.647,26.647,0,0,0,224.775,198.215Z" fill="url(#linear-gradient-2)"/>
        <path id="Path_78" data-name="Path 78" d="M197.282,198.215a27.231,27.231,0,0,1,27.493,0,26.663,26.663,0,0,0-13.746-22.972A26.661,26.661,0,0,0,197.282,198.215Z" fill="url(#linear-gradient-3)"/>
      </g>
    </g>
  </g>
</svg>
