<svg xmlns="http://www.w3.org/2000/svg" xmlns:xlink="http://www.w3.org/1999/xlink" width="1490.469" height="1449.987" viewBox="0 0 1490.469 1449.987">
  <defs>
    <linearGradient id="linear-gradient" x1="0.518" y1="1.648" x2="-0.339" y2="1.75" gradientUnits="objectBoundingBox">
      <stop offset="0.395" stop-color="#ffdcec"/>
      <stop offset="0.564" stop-color="#ffdce3"/>
      <stop offset="0.833" stop-color="#ffdfcc"/>
      <stop offset="0.93" stop-color="#ffe0c2"/>
    </linearGradient>
    <linearGradient id="linear-gradient-2" x1="1.032" y1="0.441" x2="0.232" y2="0.535" xlink:href="#linear-gradient"/>
  </defs>
  <g id="Vector_Smart_Object" data-name="Vector Smart Object" transform="matrix(0.943, 0.332, -0.332, 0.943, 318.488, -66.29)" opacity="0.2">
    <path id="Path_1" data-name="Path 1" d="M912.05,1166.065c-178.5,19.748-314.658-29.283-344.467-40.5a746.207,746.207,0,0,1-160.708-84.115,716.488,716.488,0,0,1-129.929-96.489C240.249,910.628,172.327,845.8,124.7,738.639,104.658,693.548,70.289,613.8,74.866,505.611c4.953-117.05,52.6-199.208,73.5-234.276,64.792-108.7,148.808-160.9,191.856-186.921,67.878-41.03,104.213-43.285,130.809-38.63,11.03,1.93,53.608,9.386,79.668,43.475,25.609,33.5,16.067,69.44,38.614,78.093,18.907,7.256,39.008-5.6,55.525-17.321,61.9-43.912,132.788-81.736,208.675-81.137s155.593,50.986,166.819,126.06c6.191,41.416-8.5,83.049-26.362,120.922S954.624,390.6,945.8,431.538s-2.333,88.309,28.675,116.443c27.224,24.7,66.786,29.494,103.537,29.935s74.89-2.038,108.84,12.045,61.889,51.546,50.7,86.566c-9.732,30.476-42.823,45.619-71.777,59.213-33.686,15.813-67.2,35.043-89.408,64.91s-30.56,72.683-11.538,104.674c17.4,29.252,53.207,43.88,70.182,73.378,23.052,40.061-20.8,98.53-48.907,126.45C1073.026,1118.153,1034.382,1152.533,912.05,1166.065Z" fill="url(#linear-gradient)"/>
    <path id="Path_2" data-name="Path 2" d="M1276.4,485.473c-67.782,42.752-170.829,3.818-191.492-67.6-19.876-68.706,42.979-145.034,112.642-157.741,3.265-.6,67.4-11.265,107.01,31.924C1351.362,343.083,1341.242,444.574,1276.4,485.473Z" fill="url(#linear-gradient-2)"/>
    <path id="Path_3" data-name="Path 3" d="M1270.084,914.628c-29.48,18.593-74.3,1.66-83.286-29.4-8.643-29.883,18.693-63.079,48.992-68.606,1.419-.259,29.313-4.9,46.542,13.883C1302.688,852.7,1298.285,896.841,1270.084,914.628Z" fill="url(#linear-gradient-2)"/>
  </g>
</svg>
